<svg viewBox="0 0 67 67" xmlns="http://www.w3.org/2000/svg" fill-rule="evenodd" clip-rule="evenodd" stroke-linejoin="round" stroke-miterlimit="2">
    <path d="M62.121 22.222h-4.545V62.5c0 2.302-2.035 4.167-4.546 4.167H13.636c-2.51 0-4.545-1.865-4.545-4.167V22.222H4.545C2.035 22.222 0 20.357 0 18.056c0-2.302 2.035-4.167 4.545-4.167h13.637C18.182 6.218 24.965 0 33.333 0c8.368 0 15.152 6.218 15.152 13.889h13.636c2.511 0 4.546 1.865 4.546 4.167 0 2.301-2.035 4.166-4.546 4.166zM30.303 58.333h6.06V25h-6.06v33.333zM18.182 25v33.333h6.06V25h-6.06zM33.333 5.556c-5.021 0-9.091 3.73-9.091 8.333h18.182c0-4.603-4.07-8.333-9.091-8.333zM48.485 25h-6.061v33.333h6.061V25z"/>
</svg>
