<?xml version="1.0" encoding="UTF-8"?>
<svg width="16px" height="17px" viewBox="0 0 16 17" version="1.1" xmlns="http://www.w3.org/2000/svg" xmlns:xlink="http://www.w3.org/1999/xlink">
    <title>Fill 1</title>
    <g id="Page-1" stroke="none" stroke-width="1" fill="none" fill-rule="evenodd">
        <g id="Elements" transform="translate(-479.000000, -112.000000)" fill="#2E3638">
            <path d="M492.603041,124.717943 C492.603041,125.058767 492.467269,125.385559 492.225777,125.626127 C491.984285,125.866695 491.656882,126.001236 491.315952,126 C488.798313,125.990826 483.314575,125.970911 481.555199,125.964517 C481.248227,125.963442 481,125.714388 481,125.407511 C481,123.65321 481,118.19568 481,115.688445 C481,115.348131 481.135263,115.021735 481.375962,114.78111 C481.616662,114.540429 481.94316,114.405265 482.28358,114.405265 C482.284259,114.405265 482.284882,114.405265 482.285504,114.405265 C482.994416,114.405265 483.569084,114.979754 483.569084,115.688445 C483.569084,116.962968 483.569084,118.911273 483.569084,120.221893 C483.569084,120.454766 483.70944,120.664726 483.924615,120.753835 C484.139847,120.842945 484.387564,120.793723 484.552256,120.629025 C486.144676,119.037102 489.264941,115.917867 490.807444,114.375788 C491.048144,114.135164 491.374642,114 491.715062,114 C492.055482,114 492.38198,114.135164 492.622736,114.375788 C492.623189,114.376241 492.623642,114.376694 492.624094,114.377146 C492.864794,114.617827 493,114.944167 493,115.284537 C493,115.624852 492.864794,115.951191 492.624038,116.191872 C491.07995,117.735478 487.954535,120.859918 486.360474,122.453539 C486.195725,122.61818 486.146487,122.86582 486.235625,123.080984 C486.324762,123.296092 486.534787,123.436405 486.767677,123.436405 C488.084025,123.436405 490.044031,123.436405 491.322857,123.436405 C491.662372,123.436405 491.988021,123.571229 492.228098,123.811231 C492.468175,124.051233 492.603041,124.376781 492.603041,124.71619 C492.603041,124.716755 492.603041,124.717378 492.603041,124.717943 Z" id="Fill-1" transform="translate(487.000000, 120.000000) rotate(-45.000000) translate(-487.000000, -120.000000) "></path>
        </g>
    </g>
</svg>