<svg width="16" height="17" xmlns="http://www.w3.org/2000/svg">
    <path d="M15.801 4.275a.519.519 0 00-.493-.666H.678a.503.503 0 00-.483.652L3.86 16.53a.655.655 0 00.627.469h7.012c.297 0 .56-.196.645-.482l3.657-12.243zM8.5 5.45a.501.501 0 00-.5-.502c-.276 0-.5.225-.5.502v8.37c0 .277.224.502.5.502s.5-.225.5-.502V5.45zm-3.89-.024a.5.5 0 10-.986.174l1.443 8.243a.5.5 0 10.985-.174L4.61 5.426zm6.782 0a.5.5 0 11.985.175l-1.445 8.242a.5.5 0 11-.985-.174l1.445-8.242zM9.333.465c0 .089.072.16.16.16h5.779a.73.73 0 01.728.732v.183a.733.733 0 01-.728.73H.728A.726.726 0 010 1.54v-.183A.73.73 0 01.728.625h5.78a.16.16 0 00.159-.16v-.31c0-.086.069-.155.154-.155h2.358c.085 0 .154.07.154.155v.31z" fill-rule="evenodd"/>
</svg>
